# xmcd
#
# Track frame offsets: 
#        150
#        21201
#        39028
#        56868
#        70390
#        72885
#        90177
#        110147
#        126901
#        130811
#        143644
#        165538
#        186130
#
# Disc length: 2722 seconds
#
# Revision: 0
# Processed by: cddbd v1.5.2PL0 Copyright (c) Steve Scherf et al.
# Submitted via: ExactAudioCopy v1.0b1
#
DISCID=b20aa00d
DTITLE=The Pigram Brothers - Mad Bastards
DYEAR=2011
DGENRE=Folk
TTITLE0=Nothing Really Matters
TTITLE1=Villaret
TTITLE2=Slow Train
TTITLE3=Won't Look Back
TTITLE4=Interlude 1
TTITLE5=Maysong
TTITLE6=Moonlight
TTITLE7=Catfish Rain
TTITLE8=Interlude 2
TTITLE9=Sleeping Cold
TTITLE10=Johnny Walker's Shoes
TTITLE11=In Your Arms
TTITLE12=Hearts And Minds
EXTD=
EXTT0=
EXTT1=
EXTT2=
EXTT3=
EXTT4=
EXTT5=
EXTT6=
EXTT7=
EXTT8=
EXTT9=
EXTT10=
EXTT11=
EXTT12=
PLAYORDER=
